<?xml version="1.0" encoding="utf-8"?>
<!-- Generator: Adobe Illustrator 25.0.1, SVG Export Plug-In . SVG Version: 6.00 Build 0)  -->
<svg version="1.1" id="图层_1" xmlns="http://www.w3.org/2000/svg" xmlns:xlink="http://www.w3.org/1999/xlink" x="0px" y="0px"
	 viewBox="0 0 512 448" style="enable-background:new 0 0 512 448;" xml:space="preserve">
<style type="text/css">
	.st0{fill:#93C5FD;}
</style>
<path class="st0" d="M448,48c8.8,0,16,7.2,16,16v319.8l-5-6.5l-136-176c-8.2-10.5-23.3-12.4-33.8-4.2c-1.6,1.2-3,2.7-4.2,4.2
	l-83,107.4L171.5,266c-7.7-10.7-22.7-13.2-33.4-5.5c-2.2,1.6-4.1,3.5-5.6,5.6l-80,112l-4.5,6.2V64c0-8.8,7.2-16,16-16H448z M64,0
	C28.7,0,0,28.7,0,64v320c0,35.3,28.7,64,64,64h384c35.3,0,64-28.7,64-64V64c0-35.3-28.7-64-64-64H64z M144,192c26.5,0,48-21.5,48-48
	s-21.5-48-48-48s-48,21.5-48,48S117.5,192,144,192z"/>
</svg>
